<svg xmlns="http://www.w3.org/2000/svg" viewBox="0 0 512 512" width="512" height="512">
  <path fill="#d32f2f" d="M256,5.12c-0.2,10.53 8.4,48.9 10.99,55.15c8.69,20.97 20.02,33.98 34.26,41.05c7.03,3.5 12.27,9.84 10.5,19.14c18.48,-1.71 32.86,-6.54 43.14,-15.14c-8.3,15.89 -27.51,27.19 -46.05,34.52c28.97,0.48 52.52,-6.92 72.55,-19.76c-7.12,16.08 -32.46,27.74 -47.48,35.37c18.92,7.56 32.94,7.21 53.01,-2.12c-4.89,11.66 -13.4,16.37 -33.59,26.15c7.21,2.61 13.31,0.36 21.06,-2.64c-6.35,12.99 -22.58,17.27 -34.8,18.61c10.23,10.77 19.18,22.38 26.82,44.56c-12.99,-9.08 -26.91,-13.46 -41.93,-15.52c2.21,4.29 4.13,8.3 8.36,15.66c-15.06,-8.08 -33.43,-12.99 -48.18,-12.5c-1.13,21.75 -1.54,53.22 -6.27,66.21c-4.73,-12.99 -6.38,-44.46 -7.51,-66.21c-14.75,-0.49 -33.12,4.42 -48.18,12.5c4.23,-7.36 6.16,-11.37 8.36,-15.66c-15.01,2.06 -28.93,6.44 -41.93,15.52c7.65,-22.17 16.6,-33.78 26.82,-44.56c-12.21,-1.34 -28.44,-5.62 -34.8,-18.61c7.76,3 13.85,5.25 21.06,2.64c-20.19,-9.78 -28.7,-14.49 -33.59,-26.15c20.07,9.32 34.09,9.68 53.01,2.12c-15.01,-7.63 -40.36,-19.29 -47.48,-35.37c20.03,12.84 43.58,20.24 72.55,19.76c-18.54,-7.33 -37.75,-18.63 -46.05,-34.52c10.28,8.61 24.66,13.43 43.14,15.14c-1.77,-9.3 3.47,-15.63 10.5,-19.14c14.24,-7.07 25.57,-20.08 34.26,-41.05c2.59,-6.25 11.19,-44.62 10.99,-55.15Z"/>
</svg>