<svg xmlns="http://www.w3.org/2000/svg" width="0" height="0">
  <!-- Ontario -->
  <symbol id="ontario" viewBox="0 0 100 100">
    <rect x="10" y="10" width="80" height="50" fill="#d32f2f" />
    <rect x="10" y="60" width="80" height="30" fill="#ffffff" />
    <path fill="#00843D" d="M50,25 C45,25 35,35 35,45 C35,55 45,65 50,65 C55,65 65,55 65,45 C65,35 55,25 50,25 Z" />
  </symbol>
  
  <!-- Quebec -->
  <symbol id="quebec" viewBox="0 0 100 100">
    <rect x="10" y="10" width="80" height="80" fill="#005EB8" />
    <g fill="#ffffff">
      <path d="M35,30 L40,30 L40,70 L35,70 Z" />
      <path d="M60,30 L65,30 L65,70 L60,70 Z" />
      <path d="M40,45 L60,45 L60,50 L40,50 Z" />
      <path d="M30,35 L70,35 L70,40 L30,40 Z" />
    </g>
  </symbol>
  
  <!-- British Columbia -->
  <symbol id="bc" viewBox="0 0 100 100">
    <rect x="10" y="10" width="80" height="80" fill="#0033A0" />
    <path fill="#FFD600" d="M35,30 L50,20 L65,30 L60,45 L50,35 L40,45 Z" />
    <path fill="#ffffff" d="M10,50 L90,50 L90,55 L10,55 Z" />
  </symbol>
  
  <!-- Alberta -->
  <symbol id="alberta" viewBox="0 0 100 100">
    <rect x="10" y="10" width="80" height="80" fill="#0033A0" />
    <rect x="10" y="50" width="80" height="40" fill="#00843D" />
    <path fill="#d32f2f" d="M35,20 L65,20 L65,80 L35,80 Z" />
  </symbol>
  
  <!-- Saskatchewan -->
  <symbol id="saskatchewan" viewBox="0 0 100 100">
    <rect x="10" y="10" width="80" height="80" fill="#009E60" />
    <path fill="#FFD600" d="M30,30 L70,30 L50,50 Z" />
    <path fill="#d32f2f" d="M30,70 L70,70 L50,50 Z" />
  </symbol>
  
  <!-- Manitoba -->
  <symbol id="manitoba" viewBox="0 0 100 100">
    <rect x="10" y="10" width="80" height="80" fill="#d32f2f" />
    <path fill="#ffffff" d="M50,25 C38,25 30,35 30,50 C30,65 38,75 50,75 C62,75 70,65 70,50 C70,35 62,25 50,25 Z M50,35 C56,35 60,40 60,50 C60,60 56,65 50,65 C44,65 40,60 40,50 C40,40 44,35 50,35 Z" />
  </symbol>
  
  <!-- Nova Scotia -->
  <symbol id="nova-scotia" viewBox="0 0 100 100">
    <rect x="10" y="10" width="80" height="80" fill="#0055A4" />
    <rect x="10" y="10" width="40" height="40" fill="#ffffff" />
    <path fill="#d32f2f" d="M10,10 L50,50 L10,50 Z" />
  </symbol>
  
  <!-- New Brunswick -->
  <symbol id="new-brunswick" viewBox="0 0 100 100">
    <rect x="10" y="10" width="80" height="80" fill="#d32f2f" />
    <g fill="#FFD600">
      <path d="M30,30 L40,30 L40,70 L30,70 Z" />
      <path d="M60,30 L70,30 L70,70 L60,70 Z" />
      <path d="M30,30 L70,30 L70,40 L30,40 Z" />
      <path d="M30,60 L70,60 L70,70 L30,70 Z" />
    </g>
  </symbol>
  
  <!-- Prince Edward Island -->
  <symbol id="pei" viewBox="0 0 100 100">
    <rect x="10" y="10" width="80" height="80" fill="#009E60" />
    <path fill="#d32f2f" d="M20,30 L80,30 L80,70 L20,70 Z" />
    <path fill="#ffffff" d="M30,40 L70,40 L70,60 L30,60 Z" />
  </symbol>
  
  <!-- Newfoundland and Labrador -->
  <symbol id="newfoundland" viewBox="0 0 100 100">
    <rect x="10" y="10" width="80" height="80" fill="#0055A4" />
    <path fill="#d32f2f" d="M50,30 L65,45 L50,60 L35,45 Z" />
    <path fill="#ffffff" d="M20,70 L80,70 L80,80 L20,80 Z" />
  </symbol>
  
  <!-- Nunavut -->
  <symbol id="nunavut" viewBox="0 0 100 100">
    <rect x="10" y="10" width="80" height="80" fill="#ffffff" />
    <path fill="#d32f2f" d="M50,30 L55,45 L70,45 L60,55 L65,70 L50,60 L35,70 L40,55 L30,45 L45,45 Z" />
  </symbol>
  
  <!-- Northwest Territories -->
  <symbol id="nwt" viewBox="0 0 100 100">
    <rect x="10" y="10" width="80" height="80" fill="#005EB8" />
    <path fill="#ffffff" d="M50,20 L90,50 L50,80 L10,50 Z" />
    <path fill="#0055A4" d="M50,35 L70,50 L50,65 L30,50 Z" />
  </symbol>
  
  <!-- Yukon -->
  <symbol id="yukon" viewBox="0 0 100 100">
    <rect x="10" y="10" width="80" height="80" fill="#0055A4" />
    <path fill="#ffffff" d="M30,20 L40,20 L40,80 L30,80 Z" />
    <path fill="#ffffff" d="M60,20 L70,20 L70,80 L60,80 Z" />
    <path fill="#d32f2f" d="M10,45 L90,45 L90,55 L10,55 Z" />
  </symbol>
</svg>