<svg xmlns="http://www.w3.org/2000/svg" width="300" height="300" viewBox="0 0 300 300">
  <defs>
    <pattern id="maple-pattern" x="0" y="0" width="50" height="50" patternUnits="userSpaceOnUse">
      <path fill="#ffffff" opacity="0.1" d="M25,5c-0.1,1.75 1.4,8.15 1.83,9.19c1.45,3.5 3.34,5.66 5.71,6.84c1.17,0.58 2.05,1.64 1.75,3.19c3.08,-0.29 5.48,-1.09 7.19,-2.52c-1.38,2.65 -4.58,4.53 -7.67,5.75c4.83,0.08 8.75,-1.15 12.09,-3.29c-1.19,2.68 -5.41,4.62 -7.91,5.9c3.15,1.26 5.49,1.2 8.84,-0.35c-0.82,1.94 -2.23,2.73 -5.6,4.36c1.2,0.44 2.22,0.06 3.51,-0.44c-1.06,2.16 -3.76,2.88 -5.8,3.1c1.71,1.8 3.2,3.73 4.47,7.43c-2.16,-1.51 -4.48,-2.24 -6.99,-2.59c0.37,0.72 0.69,1.38 1.39,2.61c-2.51,-1.35 -5.57,-2.16 -8.03,-2.08c-0.19,3.63 -0.26,8.87 -1.05,11.04c-0.79,-2.16 -1.06,-7.41 -1.25,-11.04c-2.46,-0.08 -5.52,0.74 -8.03,2.08c0.71,-1.23 1.03,-1.9 1.39,-2.61c-2.5,0.34 -4.82,1.07 -6.99,2.59c1.28,-3.7 2.77,-5.63 4.47,-7.43c-2.04,-0.22 -4.74,-0.94 -5.8,-3.1c1.29,0.5 2.31,0.88 3.51,0.44c-3.37,-1.63 -4.78,-2.42 -5.6,-4.36c3.35,1.55 5.68,1.61 8.84,0.35c-2.5,-1.27 -6.73,-3.22 -7.91,-5.9c3.34,2.14 7.26,3.37 12.09,3.29c-3.09,-1.22 -6.29,-3.1 -7.67,-5.75c1.71,1.44 4.11,2.24 7.19,2.52c-0.3,-1.55 0.58,-2.61 1.75,-3.19c2.37,-1.18 4.26,-3.35 5.71,-6.84c0.43,-1.04 1.87,-7.44 1.83,-9.19Z"/>
    </pattern>
  </defs>
  <rect width="300" height="300" fill="url(#maple-pattern)" />
</svg>